HIERARCHY
ROOT Hips
{
	OFFSET 0.00000 0.00000 0.00000
	CHANNELS 6 Xposition Yposition Zposition Zrotation Yrotation Xrotation 
	JOINT LHipJoint
	{
		OFFSET 0 0 0
		CHANNELS 3 Zrotation Yrotation Xrotation
		JOINT LeftHip
		{
			OFFSET 1.61024 -1.73873 0.75100
			CHANNELS 3 Zrotation Yrotation Xrotation
			JOINT LeftKnee
			{
				OFFSET 2.29819 -6.31424 0.00000
				CHANNELS 3 Zrotation Yrotation Xrotation
				JOINT LeftAnkle
				{
					OFFSET 2.76618 -7.60002 0.00000
					CHANNELS 3 Zrotation Yrotation Xrotation
					JOINT LeftToe
					{
						OFFSET 0.16838 -0.46263 2.02361
						CHANNELS 3 Zrotation Yrotation Xrotation
						End Site
						{
							OFFSET 0.00000 -0.00000 1.04662
						}
					}
				}
			}
		}
	}
	JOINT RHipJoint
	{
		OFFSET 0 0 0
		CHANNELS 3 Zrotation Yrotation Xrotation
		JOINT RightHip
		{
			OFFSET -1.46153 -1.73873 0.75100
			CHANNELS 3 Zrotation Yrotation Xrotation
			JOINT RightKnee
			{
				OFFSET -2.38373 -6.54924 0.00000
				CHANNELS 3 Zrotation Yrotation Xrotation
				JOINT RightAnkle
				{
					OFFSET -2.80314 -7.70157 0.00000
					CHANNELS 3 Zrotation Yrotation Xrotation
					JOINT RightToe
					{
						OFFSET -0.16142 -0.44349 2.02101
						CHANNELS 3 Zrotation Yrotation Xrotation
						End Site
						{
							OFFSET -0.00000 -0.00000 1.04381
						}
					}
				}
			}
		}
	}
	JOINT lowerback
	{
		OFFSET 0 0 0
		CHANNELS 3 Zrotation Yrotation Xrotation
		JOINT Chest
		{
			OFFSET -0.01629 1.66985 0.14750
			CHANNELS 3 Zrotation Yrotation Xrotation
			JOINT Chest2
			{
				OFFSET 0.02086 1.62378 0.20980
				CHANNELS 3 Zrotation Yrotation Xrotation
				JOINT lowerneck
				{
					OFFSET 0 0 0
					CHANNELS 3 Zrotation Yrotation Xrotation
					JOINT Neck
					{
						OFFSET -0.05690 1.78719 0.08702
						CHANNELS 3 Zrotation Yrotation Xrotation
						JOINT Head
						{
							OFFSET 0.16035 1.73871 -0.38470
							CHANNELS 3 Zrotation Yrotation Xrotation
							End Site
							{
								OFFSET 0.05645 1.80914 -0.14081
							}
						}
					}
				}
				JOINT LeftCollar
				{
					OFFSET 0 0 0
					CHANNELS 3 Zrotation Yrotation Xrotation
					JOINT LeftShoulder
					{
						OFFSET 2.83089 1.66494 -0.46008
CHANNELS 3 Zrotation Xrotation Yrotation
						JOINT LeftElbow
						{
OFFSET 0 -5.548930 -0.000000
CHANNELS 3 Zrotation Xrotation Yrotation
							JOINT LeftWrist
							{
OFFSET 0 -3.028980 -0.000000
CHANNELS 3 Zrotation Xrotation Yrotation
								JOINT lhand
								{
									OFFSET 0 0 0
CHANNELS 3 Zrotation Xrotation Yrotation
									JOINT LFingers
									{
OFFSET 0 -0.640950 -0.000000
CHANNELS 3 Zrotation Xrotation Yrotation
										End Site
										{
OFFSET 0 -0.516750 -0.000000
										}
									}
								}
								JOINT LThumb
								{
OFFSET 0 0.000000 0.000000
CHANNELS 3 Zrotation Xrotation Yrotation
									End Site
									{
OFFSET 0 -0.524640 0.524640
									}
								}
							}
						}
					}
				}
				JOINT RightCollar
				{
					OFFSET 0 0 0
					CHANNELS 3 Zrotation Yrotation Xrotation
					JOINT RightShoulder
					{
						OFFSET -2.84442 1.45761 -0.18088
CHANNELS 3 Zrotation Xrotation Yrotation
						JOINT RightElbow
						{
OFFSET 0 -5.351900 -0.000000
CHANNELS 3 Zrotation Xrotation Yrotation
							JOINT RightWrist
							{
OFFSET 0 -3.025310 -0.000000
CHANNELS 3 Zrotation Xrotation Yrotation
								JOINT rhand
								{
									OFFSET 0 0 0
CHANNELS 3 Zrotation Xrotation Yrotation
									JOINT RFingers
									{
OFFSET 0 -0.783890 -0.000000
CHANNELS 3 Zrotation Xrotation Yrotation
										End Site
										{
OFFSET 0 -0.631990 -0.000000
										}
									}
								}
								JOINT RThumb
								{
OFFSET 0 0.000000 0.000000
CHANNELS 3 Zrotation Xrotation Yrotation
									End Site
									{
OFFSET 0 -0.641640 0.641640
									}
								}
							}
						}
					}
				}
			}
		}
	}
}
MOTION
Frames: 10
Frame Time: 0.008333333333333333
-1.750539 17.251805 1.356981 -564.136175 94.118440 -545.691861 0.000000 0.000000 0.000000 -10.518412 -0.270848 -39.681846 3.379366 11.285041 33.247522 0.515007 -0.451518 -13.409979 1.407703 -7.504634 -21.219402 0.000000 0.000000 0.000000 14.848657 13.229047 -40.275597 -4.165757 -12.377766 37.081880 -0.668911 2.029012 -14.891638 -1.436674 7.578064 -21.439680 -2.122892 -3.749198 21.396487 4.437765 -4.790346 0.985870 7.567507 -1.972236 -10.313894 2.707057 9.593019 -9.034124 -3.475151 12.880936 -11.602664 -1.349788 6.595848 -1.769377 0.000000 0.000000 0.000000 3.083440 -40.391332 -73.511355 9.144208 -15.385882 1.242143 9.625681 19.158340 -15.921917 0.000000 0.000000 0.000000 -7.125000 0.000000 0.000000 -16.834827 45.419804 0.183406 0.000000 0.000000 0.000000 -18.744254 -17.227484 24.614893 -14.639881 -23.641944 -3.080193 28.485509 -14.846644 -12.356760 0.000000 0.000000 0.000000 7.125000 0.000000 0.000000 35.280960 16.117769 30.711352
-1.623549 17.331766 1.372344 -584.234910 91.986619 -565.535032 0.000000 0.000000 0.000000 -10.279414 -2.870254 -37.645591 2.903224 10.536569 30.732539 0.448223 0.925817 -13.015762 1.612597 -8.007539 -22.737071 0.000000 0.000000 0.000000 15.033740 12.047039 -39.108734 -3.841962 -11.946974 35.544827 -0.678268 0.651371 -15.352101 -1.174450 6.877815 -19.354271 -2.248307 -5.206846 20.640039 4.641308 -6.743282 0.472469 8.356497 -2.899194 -10.161690 2.967435 10.256575 -8.300982 -4.197050 13.690424 -11.635062 -1.632427 6.994260 -1.807376 0.000000 0.000000 0.000000 -14.065470 -40.311051 -98.215273 17.220933 -27.143101 4.190363 13.666477 -28.816248 -28.914871 0.000000 0.000000 0.000000 -7.125000 0.000000 0.000000 -19.301061 58.541209 6.545132 0.000000 0.000000 0.000000 -20.048885 -5.650748 29.226459 -16.619329 -26.352930 -3.917057 29.254197 -18.616252 -14.578192 0.000000 0.000000 0.000000 7.125000 0.000000 0.000000 35.096505 13.947121 32.641757
-1.530006 17.374674 1.399665 -636.100175 91.798018 -616.740970 0.000000 0.000000 0.000000 -9.276282 -4.171244 -37.196125 2.684918 10.166652 29.518053 0.427541 0.924182 -12.720678 1.509953 -7.760499 -21.988805 0.000000 0.000000 0.000000 15.891421 11.405762 -38.772528 -3.623004 -11.640982 34.473585 -0.682840 -0.168113 -15.678158 -1.429607 7.559355 -21.383929 -1.662678 -6.489925 20.043846 3.998298 -8.415260 -0.112996 7.725381 -3.733272 -10.430174 3.290043 10.788303 -7.362768 -3.553281 14.444252 -11.898476 -1.543462 7.341993 -2.053229 0.000000 0.000000 0.000000 -29.406272 -39.162862 -115.724598 20.815658 -31.611557 5.953489 10.554239 -43.486116 -27.970795 0.000000 0.000000 0.000000 -7.125000 0.000000 0.000000 -21.833290 56.993716 6.629948 0.000000 0.000000 0.000000 -21.791138 4.218122 28.479874 -16.905231 -26.732575 -4.044659 22.742959 -25.150452 -11.928401 0.000000 0.000000 0.000000 7.125000 0.000000 0.000000 32.580699 17.436350 25.952077
-1.453860 17.383413 1.415570 -657.563701 92.656035 -637.945412 0.000000 0.000000 0.000000 -8.312444 -4.648097 -37.223720 2.673555 10.146843 29.453661 0.433497 0.403947 -12.590334 1.546373 -7.849332 -22.257285 0.000000 0.000000 0.000000 16.807119 11.140182 -38.351573 -3.528697 -11.505258 34.003597 -0.704445 -0.725826 -16.136375 -1.358215 7.376541 -20.836011 -3.470115 -7.203815 19.168693 4.786302 -9.695734 0.108652 9.721215 -4.343211 -9.082302 2.169985 11.595457 -6.164922 -4.637417 15.509636 -12.764605 -1.821598 7.946174 -2.505153 0.000000 0.000000 0.000000 -43.279213 -39.796377 -135.946080 25.470940 -36.676586 8.571581 11.152264 -43.475904 -26.544995 0.000000 0.000000 0.000000 -7.125000 0.000000 0.000000 -20.308718 55.788038 5.539889 0.000000 0.000000 0.000000 -27.042938 10.121048 20.401277 -16.277623 -25.895566 -3.766409 12.002369 -26.491164 -7.679847 0.000000 0.000000 0.000000 7.125000 0.000000 0.000000 27.292613 22.134103 16.980963
-1.389160 17.393572 1.422401 -663.594179 93.512143 -644.146083 0.000000 0.000000 0.000000 -7.537150 -4.882699 -36.797015 2.657768 10.119237 29.363625 0.451006 0.158707 -12.745773 1.617247 -8.018534 -22.770530 0.000000 0.000000 0.000000 17.754270 10.622541 -37.658953 -3.440518 -11.376098 33.559130 -0.711448 -0.898765 -16.285119 -1.240435 7.062029 -19.899333 -3.888417 -8.190079 18.981030 4.742726 -11.110572 0.113495 10.158461 -5.048143 -8.654211 1.910518 12.412268 -4.565794 -5.927704 16.477701 -13.110204 -2.306720 8.472616 -2.772000 0.000000 0.000000 0.000000 -50.653489 -41.525991 -150.136086 39.330447 -47.652023 17.947811 16.503146 -42.540394 -31.892830 0.000000 0.000000 0.000000 -7.125000 0.000000 0.000000 -18.525454 62.016895 7.813085 0.000000 0.000000 0.000000 -32.448055 14.048591 3.729377 -17.204082 -27.125363 -4.180337 5.567237 -25.606135 -5.500704 0.000000 0.000000 0.000000 7.125000 0.000000 0.000000 23.479006 24.347828 12.774185
-1.349083 17.399813 1.413333 -659.451202 93.847458 -639.889549 0.000000 0.000000 0.000000 -7.038720 -4.842734 -36.796341 2.671415 10.143186 29.441626 0.460817 0.029824 -12.836672 1.715040 -8.245337 -23.461738 0.000000 0.000000 0.000000 18.305265 10.497879 -37.506998 -3.367764 -11.267876 33.188657 -0.718883 -0.598585 -16.247475 -1.085638 6.621095 -18.598067 -3.948961 -8.784939 18.233930 4.302106 -11.956327 0.237229 9.705190 -5.521424 -8.040564 2.218511 13.128395 -4.336344 -6.676961 17.336683 -12.299377 -2.525551 8.891580 -2.405871 0.000000 0.000000 0.000000 -55.825598 -46.019049 -160.093412 63.574064 -57.157191 37.336941 8.676509 -54.865795 -28.686184 0.000000 0.000000 0.000000 -7.125000 0.000000 0.000000 -24.213769 57.261950 7.552733 0.000000 0.000000 0.000000 -37.375670 16.906978 -11.261016 -23.362888 -34.474576 -7.346426 -1.215057 -40.799391 -3.634800 0.000000 0.000000 0.000000 7.125000 0.000000 0.000000 19.023117 26.212507 9.146709
-1.349912 17.391090 1.396477 -646.922549 93.450696 -627.688102 0.000000 0.000000 0.000000 -7.302370 -4.436374 -36.430542 2.712806 10.214967 29.675687 0.474392 0.276427 -13.115522 1.726228 -8.270746 -23.539619 0.000000 0.000000 0.000000 18.102896 11.009981 -37.128781 -3.402093 -11.319171 33.364019 -0.709622 -0.810519 -16.228569 -1.365015 7.394694 -20.890043 -4.686472 -8.675143 18.996694 3.762573 -12.060896 -0.077965 9.730553 -5.487692 -8.760884 2.200121 13.631788 -4.946718 -6.228536 18.018619 -10.582448 -2.210082 9.181014 -1.748745 0.000000 0.000000 0.000000 -61.092630 -51.426811 -166.253601 93.360709 -59.933348 62.909211 -7.621315 -70.346682 -25.809441 0.000000 0.000000 0.000000 -7.125000 0.000000 0.000000 -37.399267 51.737389 7.019399 0.000000 0.000000 0.000000 -44.774119 19.389388 -17.119193 -32.040530 -42.569794 -12.771589 -3.215029 -49.418413 -7.998667 0.000000 0.000000 0.000000 7.125000 0.000000 0.000000 17.004358 22.061087 9.801046
-1.381407 17.379055 1.374610 -635.261549 92.853737 -616.489518 0.000000 0.000000 0.000000 -7.951271 -4.418189 -35.943275 2.750192 10.279286 29.885801 0.478793 0.855839 -13.408721 1.582499 -7.936215 -22.520647 0.000000 0.000000 0.000000 17.554319 10.625276 -37.313265 -3.525211 -11.500231 33.986256 -0.738790 0.128490 -16.202999 -1.438320 7.582290 -21.452379 -5.494280 -8.119273 19.380296 2.951978 -11.596124 0.007153 9.249724 -5.221636 -8.979335 2.415740 13.409749 -4.151781 -6.212184 17.724571 -11.260552 -2.353215 9.041285 -2.099699 0.000000 0.000000 0.000000 -66.470695 -57.349526 -170.846800 118.901328 -56.590201 84.742002 -13.296521 -80.897083 -24.632119 0.000000 0.000000 0.000000 -7.125000 0.000000 0.000000 -41.407649 49.860896 5.862559 0.000000 0.000000 0.000000 -53.012591 20.693896 -18.826361 -41.919166 -49.163864 -19.880176 -4.468394 -55.272711 -10.690761 0.000000 0.000000 0.000000 7.125000 0.000000 0.000000 15.864635 19.449294 10.066789
-1.444491 17.343432 1.354626 -639.832686 92.691038 -621.165314 0.000000 0.000000 0.000000 -8.009476 -4.925746 -36.925425 3.022381 10.731126 31.378372 0.483204 0.750204 -13.424812 1.579209 -7.928292 -22.496519 0.000000 0.000000 0.000000 17.288303 10.011312 -38.217671 -3.711764 -11.766539 34.911047 -0.750561 0.715190 -16.143257 -1.494214 7.721814 -21.872399 -5.592939 -7.575424 19.877388 2.266743 -10.974651 0.160633 8.501478 -4.898713 -9.315857 2.727778 12.964774 -4.716783 -5.735767 17.162738 -11.252891 -2.218130 8.740314 -2.042279 0.000000 0.000000 0.000000 -68.830963 -63.298377 -170.395282 132.903847 -51.751696 96.125171 -19.687217 -83.645118 -22.157128 0.000000 0.000000 0.000000 -7.125000 0.000000 0.000000 -44.763943 46.943611 2.679860 0.000000 0.000000 0.000000 -61.191006 20.510357 -16.624813 -50.482405 -53.186104 -26.560406 -6.106377 -63.923165 -13.844670 0.000000 0.000000 0.000000 7.125000 0.000000 0.000000 14.526214 16.334047 10.190837
-1.549708 17.256608 1.342816 -662.207634 93.050746 -643.488955 0.000000 0.000000 0.000000 -7.257164 -6.290369 -39.350792 3.653036 11.683172 34.621021 0.499262 -0.750202 -13.109203 1.478182 -7.681921 -21.752170 0.000000 0.000000 0.000000 17.092423 9.228189 -39.992175 -4.121225 -12.319724 36.872982 -0.799301 1.277116 -16.508122 -1.504591 7.747207 -21.948961 -5.269091 -6.984403 20.564146 1.546139 -10.199313 0.381231 7.460960 -4.514999 -9.771047 3.065409 12.263232 -5.447414 -4.413287 16.330689 -11.283565 -1.833994 8.290730 -2.052615 0.000000 0.000000 0.000000 -63.983367 -68.970994 -162.068636 137.202781 -49.642554 99.453857 -23.854403 -87.131143 -22.668015 0.000000 0.000000 0.000000 -7.125000 0.000000 0.000000 -48.209106 46.702291 2.645080 0.000000 0.000000 0.000000 -67.570775 19.026724 -13.379355 -56.509786 -55.305385 -31.453855 -5.136185 -67.690098 -13.979277 0.000000 0.000000 0.000000 7.125000 0.000000 0.000000 15.168227 16.247728 10.704332
